<svg xmlns="http://www.w3.org/2000/svg" viewBox="0 0 64 64" role="img" aria-label="Cupid">
  <defs>
    <linearGradient id="aura-bg" x1="4" y1="2" x2="60" y2="62" gradientUnits="userSpaceOnUse">
      <stop offset="0" stop-color="#f43f5e"/>
      <stop offset="0.55" stop-color="#d946ef"/>
      <stop offset="1" stop-color="#a78bfa"/>
    </linearGradient>
    <radialGradient id="aura-highlight" cx="20" cy="16" r="42" gradientUnits="userSpaceOnUse">
      <stop offset="0" stop-color="#ffffff" stop-opacity="0.42"/>
      <stop offset="1" stop-color="#ffffff" stop-opacity="0"/>
    </radialGradient>
    <linearGradient id="heart-fill" x1="14" y1="13" x2="50" y2="51" gradientUnits="userSpaceOnUse">
      <stop offset="0" stop-color="#ffffff"/>
      <stop offset="1" stop-color="#fff1f4"/>
    </linearGradient>
    <radialGradient id="core-glow" cx="32" cy="29.5" r="9" gradientUnits="userSpaceOnUse">
      <stop offset="0" stop-color="#fff7e6"/>
      <stop offset="0.55" stop-color="#fde68a" stop-opacity="0.7"/>
      <stop offset="1" stop-color="#fde68a" stop-opacity="0"/>
    </radialGradient>
  </defs>

  <rect width="64" height="64" rx="14" fill="url(#aura-bg)"/>
  <rect width="64" height="64" rx="14" fill="url(#aura-highlight)"/>

  <g fill="#ffffff">
    <circle cx="12" cy="20" r="1.1" opacity="0.85"/>
    <circle cx="52" cy="14" r="0.9" opacity="0.7"/>
    <circle cx="53" cy="47" r="1.0" opacity="0.8"/>
    <circle cx="33" cy="9" r="0.7" opacity="0.55"/>
    <circle cx="56" cy="31" r="0.7" opacity="0.65"/>
    <circle cx="7" cy="33" r="0.7" opacity="0.55"/>
  </g>
  <circle cx="10" cy="46" r="0.9" fill="#fef3c7" opacity="0.85"/>

  <g opacity="0.85">
    <circle cx="8" cy="14" r="0.6" fill="#ffffff" opacity="0.35"/>
    <circle cx="13" cy="9" r="0.7" fill="#ffffff" opacity="0.55"/>
    <circle cx="19" cy="6.5" r="0.85" fill="#ffffff" opacity="0.7"/>
    <circle cx="25.5" cy="6" r="1.0" fill="#ffffff" opacity="0.85"/>
  </g>

  <path d="M32 51 C32 51 10.5 38.2 10.5 24.3 C10.5 17.7 15.9 12.6 22.4 12.6 C26.5 12.6 30 14.7 32 18.2 C34 14.7 37.5 12.6 41.6 12.6 C48.1 12.6 53.5 17.7 53.5 24.3 C53.5 38.2 32 51 32 51 Z"
        fill="url(#heart-fill)"/>

  <ellipse cx="32" cy="29.5" rx="9.5" ry="7" fill="url(#core-glow)" opacity="0.95"/>
  <circle cx="27.4" cy="29.5" r="1.7" fill="#f43f5e"/>
  <circle cx="36.6" cy="29.5" r="1.7" fill="#a78bfa"/>
  <circle cx="32" cy="29.5" r="1.05" fill="#ffffff"/>
  <circle cx="32" cy="29.5" r="0.5" fill="#fef9c3"/>
</svg>
